# Blender v2.78 (sub 0) OBJ File: 'Wall mounted torch.blend'
# www.blender.org
mtllib torch.mtl
o torch_Cylinder.001
v -0.000000 -8.247797 0.000000
v -0.000000 -0.301503 0.787745
v 0.144250 -8.255149 0.059297
v 0.282843 -0.315919 0.904012
v 0.204000 -8.272898 0.202450
v 0.400000 -0.350722 1.184705
v 0.144250 -8.290648 0.345604
v 0.282843 -0.385524 1.465399
v -0.000000 -8.297999 0.404900
v -0.000000 -0.399940 1.581666
v -0.144250 -8.290648 0.345604
v -0.282843 -0.385524 1.465399
v -0.204000 -8.272898 0.202450
v -0.400000 -0.350722 1.184705
v -0.144250 -8.255149 0.059297
v -0.282843 -0.315919 0.904012
v -0.000000 -7.142519 0.000000
v 0.240416 -7.154773 0.098827
v 0.340000 -7.184355 0.337416
v 0.240416 -7.213937 0.576006
v -0.000000 -7.226191 0.674833
v -0.240416 -7.213937 0.576006
v -0.340000 -7.184355 0.337416
v -0.240416 -7.154773 0.098827
v 0.567259 0.500012 1.861789
v 0.802225 0.569811 1.298840
v 0.567259 0.639610 0.735892
v -0.000000 0.668521 0.502711
v -0.000000 1.072987 2.169596
v -0.567259 1.101899 1.936415
v -0.802225 1.171698 1.373467
v -0.567259 1.241497 0.810519
v 0.353553 -0.394225 1.535572
v 0.500000 -0.350722 1.184705
v 0.353553 -0.307218 0.833839
v -0.000000 -0.289199 0.688505
v 0.502399 0.282917 1.769515
v -0.000000 0.257312 1.976035
v 0.710500 0.344736 1.270934
v -0.502400 0.406554 0.772352
v -0.000000 1.270408 0.577338
v 0.567259 1.241497 0.810519
v 0.802225 1.171698 1.373467
v 0.567259 1.101899 1.936415
v -0.000000 1.527420 2.655658
v -0.868806 1.785507 0.574114
v 1.228677 1.678604 1.436318
v 0.868806 1.571701 2.298522
v -0.502400 0.282917 1.769515
v -0.000000 0.432160 0.565833
v 0.502399 0.406554 0.772352
v -0.710500 0.344736 1.270934
v -0.000000 0.251994 0.755606
v 0.353553 0.233974 0.900940
v 0.500000 0.190471 1.251807
v 0.353553 0.146967 1.602674
v -0.353553 -0.307218 0.833839
v -0.500000 -0.350722 1.184705
v -0.353553 -0.394225 1.535572
v -0.000000 -0.412245 1.680906
v -0.567259 0.639610 0.735892
v -0.802225 0.569811 1.298840
v -0.567259 0.500012 1.861788
v -0.000000 0.471100 2.094969
v -0.000000 0.128948 1.748007
v -0.353553 0.146967 1.602673
v -0.500000 0.190471 1.251807
v -0.353553 0.233974 0.900940
v -0.000000 2.166834 2.938093
v -1.011367 2.218381 2.522355
v -1.430289 2.342825 1.518673
v -1.011367 2.467270 0.514992
v -1.086882 4.897475 0.740215
v -1.537083 4.763739 1.818837
v -1.086882 4.630002 2.897460
v -0.000000 4.574607 3.344240
v -0.868806 1.571701 2.298521
v -0.000000 1.829787 0.216977
v 0.868806 1.785507 0.574113
v -1.228677 1.678604 1.436318
v 0.000000 4.952870 0.293435
v 1.086882 4.897475 0.740215
v 1.537083 4.763739 1.818837
v 1.086882 4.630002 2.897460
v -0.000000 1.171698 1.373467
v 1.011367 2.218381 2.522355
v 1.430289 2.342825 1.518673
v 1.011367 2.467270 0.514991
v -0.000000 2.518816 0.099253
v 0.550000 -1.544042 0.100000
v -0.550000 0.955958 -0.000000
v 0.550000 0.955958 -0.000000
v 0.000000 0.113123 0.638942
v -0.550000 -1.544042 0.100000
v 0.550000 -1.544042 -0.000000
v 0.000000 -0.136877 0.638942
v 0.550000 0.955958 0.100000
v -0.550000 0.955958 0.100000
v -0.550000 -1.544042 -0.000000
v 0.125000 0.113123 0.638942
v -0.125000 -0.136877 0.100000
v -0.125000 0.113123 0.100000
v 0.125000 -0.136877 0.638942
v 0.125000 -0.136877 0.100000
v 0.125000 0.113123 0.100000
v -0.125000 0.113123 0.638942
v -0.125000 -0.136877 0.638942
vt 0.5000 0.4626
vt 0.5000 0.2830
vt 0.6535 0.3465
vt 0.5265 0.4735
vt 0.7170 0.5000
vt 0.5374 0.5000
vt 0.6535 0.6535
vt 0.5265 0.5265
vt 0.5000 0.7170
vt 0.5000 0.5374
vt 0.3465 0.6535
vt 0.4735 0.5265
vt 0.2830 0.5000
vt 0.4626 0.5000
vt 0.5000 0.5850
vt 0.4399 0.5601
vt 0.4735 0.4735
vt 0.3465 0.3465
vt 0.5000 0.4942
vt 0.5041 0.4959
vt 0.5058 0.5000
vt 0.5041 0.5041
vt 0.5000 0.5058
vt 0.4959 0.5041
vt 0.4942 0.5000
vt 0.4959 0.4959
vt 0.5850 0.5000
vt 0.5601 0.5601
vt 0.4150 0.5000
vt 0.5966 0.5966
vt 0.5000 0.6366
vt 0.4034 0.5966
vt 0.3634 0.5000
vt 0.5000 0.5007
vt 0.3782 0.4980
vt 0.3782 0.5801
vt 0.5000 0.5828
vt 0.5601 0.4399
vt 0.6218 0.4980
vt 0.6218 0.5801
vt 0.5909 0.4091
vt 0.5000 0.3714
vt 0.5000 0.3234
vt 0.6249 0.3751
vt 0.4399 0.4399
vt 0.5000 0.4150
vt 0.6131 0.3869
vt 0.6366 0.5000
vt 0.3869 0.3869
vt 0.6249 0.6249
vt 0.6766 0.5000
vt 0.5980 0.5000
vt 0.5693 0.5693
vt 0.3714 0.5000
vt 0.4091 0.5909
vt 0.3751 0.6249
vt 0.3234 0.5000
vt 0.5000 0.6286
vt 0.5000 0.6766
vt 0.5909 0.5909
vt 0.6286 0.5000
vt 0.4091 0.4091
vt 0.3751 0.3751
vt 0.6398 0.3602
vt 0.5000 0.3023
vt 0.5000 0.2515
vt 0.6757 0.3243
vt 0.4307 0.5693
vt 0.4020 0.5000
vt 0.4307 0.4307
vt 0.5000 0.4020
vt 0.5000 0.5980
vt 0.5693 0.4307
vt 0.5000 0.3401
vt 0.3168 0.5000
vt 0.3705 0.6295
vt 0.5000 0.6832
vt 0.6295 0.6295
vt 0.6832 0.5000
vt 0.3602 0.3602
vt 0.3243 0.3243
vt 0.5000 0.7485
vt 0.6757 0.6757
vt 0.8536 0.8536
vt 0.5000 1.0000
vt 0.2515 0.5000
vt 0.0000 0.5000
vt 0.1464 0.1464
vt 0.5000 0.6977
vt 0.6398 0.6398
vt 0.5000 0.0000
vt 0.3602 0.6398
vt 0.3243 0.6757
vt 0.1464 0.8536
vt 0.6977 0.5000
vt 0.7485 0.5000
vt 1.0000 0.5000
vt 0.3023 0.5000
vt 0.8536 0.1464
vt 0.5000 0.5000
vt 0.3781 0.5964
vt 0.3105 0.6895
vt 0.3105 0.3105
vt 0.3781 0.4891
vt 0.5431 0.5617
vt 0.5431 0.5238
vt 0.6219 0.4891
vt 0.6219 0.5964
vt 0.5000 0.5617
vt 0.4569 0.5617
vt 0.4569 0.5238
vt 0.5000 0.5238
vt 0.3105 0.6895
vt 0.3105 0.3105
vt 0.6895 0.6895
vt 0.6895 0.3105
vt 0.6895 0.3105
vt 0.6895 0.6895
vn 0.0000 0.0582 -0.9983
vn 0.0000 -0.7277 -0.6858
vn 0.4180 -0.7490 -0.5140
vn 0.7056 0.0222 -0.7082
vn 0.5911 -0.8005 -0.0992
vn 0.9979 -0.0646 -0.0080
vn 0.4180 -0.8519 0.3155
vn 0.7056 -0.1514 0.6922
vn 0.0000 -0.8732 0.4873
vn 0.0000 -0.1874 0.9823
vn -0.4180 -0.8519 0.3155
vn -0.7056 -0.1514 0.6922
vn -0.5911 -0.8005 -0.0992
vn -0.9979 -0.0646 -0.0080
vn 0.0000 -0.7210 0.6929
vn -0.5490 -0.6930 0.4672
vn -0.7056 0.0222 -0.7082
vn -0.4180 -0.7490 -0.5140
vn 0.0000 -0.5802 -0.8145
vn 0.5211 -0.6067 -0.6003
vn 0.7369 -0.6708 -0.0832
vn 0.5211 -0.7349 0.4339
vn 0.0000 -0.7615 0.6481
vn -0.5211 -0.7349 0.4339
vn -0.7369 -0.6708 -0.0832
vn -0.5211 -0.6067 -0.6003
vn 0.7764 -0.6254 -0.0775
vn 0.5490 -0.6930 0.4672
vn -0.7764 -0.6254 -0.0775
vn 0.6117 -0.5730 0.5453
vn 0.0000 -0.6042 0.7968
vn -0.6117 -0.5730 0.5453
vn -0.8651 -0.4978 -0.0617
vn 0.0000 -0.5097 -0.8603
vn -0.5747 -0.4382 -0.6911
vn -0.6376 -0.2775 -0.7186
vn 0.0000 0.0425 -0.9991
vn 0.5747 -0.4382 -0.6911
vn 0.6376 -0.2775 -0.7186
vn 0.5748 -0.5072 -0.6421
vn 0.0000 -0.4779 -0.8784
vn 0.0000 -0.0604 -0.9982
vn 0.6952 -0.0959 -0.7124
vn 0.8651 -0.4978 -0.0617
vn 0.6952 -0.2669 0.6674
vn 0.9831 -0.1814 -0.0225
vn 0.7722 -0.6305 -0.0782
vn 0.5460 -0.6977 0.4637
vn -0.8130 -0.5779 -0.0716
vn -0.5748 -0.6486 0.4988
vn -0.6952 -0.2669 0.6674
vn -0.9831 -0.1814 -0.0225
vn 0.0000 -0.6779 0.7351
vn 0.0000 -0.3023 0.9532
vn 0.5748 -0.6486 0.4988
vn 0.8130 -0.5779 -0.0716
vn -0.5748 -0.5072 -0.6421
vn -0.6952 -0.0959 -0.7124
vn 0.6297 -0.3739 -0.6809
vn 0.0000 -0.3418 -0.9397
vn 0.0000 -0.0399 -0.9992
vn 0.6977 -0.0755 -0.7124
vn -0.5460 -0.6977 0.4637
vn -0.7722 -0.6305 -0.0782
vn -0.5460 -0.5634 -0.6200
vn 0.0000 -0.5355 -0.8445
vn 0.0000 -0.7255 0.6881
vn 0.5460 -0.5634 -0.6200
vn -0.6297 -0.3739 -0.6809
vn -0.6977 -0.0755 -0.7124
vn 0.0000 -0.2828 0.9592
vn 0.6977 -0.2472 0.6724
vn 0.7064 -0.1303 0.6957
vn 0.0000 -0.1663 0.9861
vn -0.9867 -0.1614 -0.0200
vn -0.9990 -0.0434 -0.0054
vn -0.7064 0.0435 -0.7064
vn 0.0000 -0.5610 0.8278
vn 0.6297 -0.5289 0.5689
vn 0.0000 0.0795 -0.9968
vn -0.6297 -0.5289 0.5689
vn -0.6977 -0.2472 0.6724
vn -0.7064 -0.1303 0.6957
vn 0.8905 -0.4514 -0.0560
vn 0.9867 -0.1614 -0.0200
vn 0.9990 -0.0434 -0.0054
vn -0.8905 -0.4514 -0.0560
vn 0.7064 0.0435 -0.7064
vn 0.0000 -0.9924 -0.1230
vn -0.3015 0.3015 0.9045
vn -0.5773 0.5773 0.5773
vn -0.5773 -0.5773 0.5773
vn -0.3015 -0.3015 0.9045
vn 0.6191 0.6040 -0.5018
vn 0.6465 -0.4545 -0.6127
vn 0.3015 -0.3015 0.9045
vn 0.3015 0.3015 0.9045
vn 0.0000 0.9384 -0.3453
vn -0.6191 0.6040 -0.5018
vn -0.6465 -0.4545 -0.6127
vn 0.0000 -0.8666 -0.4990
vn -0.5773 0.5773 -0.5773
vn -0.5773 -0.5773 -0.5773
vn 0.5773 0.5773 0.5773
vn 0.5773 -0.5773 0.5773
vn 0.5773 -0.5773 -0.5773
vn 0.5773 0.5773 -0.5773
usemtl lowpoly
s 1
f 17/1/1 2/2/2 4/3/3 18/4/4
f 18/4/4 4/3/3 6/5/5 19/6/6
f 19/6/6 6/5/5 8/7/7 20/8/8
f 20/8/8 8/7/7 10/9/9 21/10/10
f 21/10/10 10/9/9 12/11/11 22/12/12
f 22/12/12 12/11/11 14/13/13 23/14/14
f 12/11/11 10/9/9 60/15/15 59/16/16
f 24/17/17 16/18/18 2/2/2 17/1/1
f 23/14/14 14/13/13 16/18/18 24/17/17
f 1/19/19 3/20/20 5/21/21 7/22/22 9/23/23 11/24/24 13/25/25 15/26/26
f 1/19/19 17/1/1 18/4/4 3/20/20
f 3/20/20 18/4/4 19/6/6 5/21/21
f 5/21/21 19/6/6 20/8/8 7/22/22
f 7/22/22 20/8/8 21/10/10 9/23/23
f 9/23/23 21/10/10 22/12/12 11/24/24
f 11/24/24 22/12/12 23/14/14 13/25/25
f 15/26/26 24/17/17 17/1/1 1/19/19
f 13/25/25 23/14/14 24/17/17 15/26/26
f 8/7/7 6/5/5 34/27/27 33/28/28
f 14/13/13 12/11/11 59/16/16 58/29/29
f 60/15/15 33/28/28 56/30/30 65/31/31
f 58/29/29 59/16/16 66/32/32 67/33/33
f 36/34/34 57/35/35 68/36/36 53/37/37
f 6/5/5 4/3/3 35/38/38 34/27/27
f 35/39/38 36/34/34 53/37/37 54/40/39
f 51/41/40 50/42/41 28/43/42 27/44/43
f 2/2/2 16/18/18 57/45/35 36/46/34
f 10/9/9 8/7/7 33/28/28 60/15/15
f 34/27/27 35/38/38 54/47/39 55/48/44
f 57/45/35 58/29/29 67/33/33 68/49/36
f 16/18/18 14/13/13 58/29/29 57/45/35
f 4/3/3 2/2/2 36/46/34 35/38/38
f 33/28/28 34/27/27 55/48/44 56/30/30
f 59/16/16 60/15/15 65/31/31 66/32/32
f 25/50/45 26/51/46 43/52/47 44/53/48
f 52/54/49 49/55/50 63/56/51 62/57/52
f 49/55/50 38/58/53 64/59/54 63/56/51
f 37/60/55 39/61/56 26/51/46 25/50/45
f 38/58/53 37/60/55 25/50/45 64/59/54
f 40/62/57 52/54/49 62/57/52 61/63/58
f 50/42/41 40/62/57 61/63/58 28/43/42
f 39/61/56 51/41/40 27/44/43 26/51/46
f 79/64/59 78/65/60 89/66/61 88/67/62
f 62/57/52 63/56/51 30/68/63 31/69/64
f 28/43/42 61/63/58 32/70/65 41/71/66
f 63/56/51 64/59/54 29/72/67 30/68/63
f 26/51/46 27/44/43 42/73/68 43/52/47
f 64/59/54 25/50/45 44/53/48 29/72/67
f 61/63/58 62/57/52 31/69/64 32/70/65
f 27/44/43 28/43/42 41/71/66 42/73/68
f 54/47/39 53/74/37 50/42/41 51/41/40
f 67/75/33 66/76/32 49/55/50 52/54/49
f 66/76/32 65/77/31 38/58/53 49/55/50
f 56/78/30 55/79/44 39/61/56 37/60/55
f 65/77/31 56/78/30 37/60/55 38/58/53
f 68/49/36 67/75/33 52/54/49 40/62/57
f 53/74/37 68/49/36 40/62/57 50/42/41
f 55/79/44 54/47/39 51/41/40 39/61/56
f 78/65/60 46/80/69 72/81/70 89/66/61
f 69/82/71 86/83/72 84/84/73 76/85/74
f 72/81/70 71/86/75 74/87/76 73/88/77
f 45/89/78 48/90/79 86/83/72 69/82/71
f 89/66/61 72/81/70 73/88/77 81/91/80
f 77/92/81 45/89/78 69/82/71 70/93/82
f 71/86/75 70/93/82 75/94/83 74/87/76
f 47/95/84 79/64/59 88/67/62 87/96/85
f 86/83/72 87/96/85 83/97/86 84/84/73
f 48/90/79 47/95/84 87/96/85 86/83/72
f 46/80/69 80/98/87 71/86/75 72/81/70
f 88/67/62 89/66/61 81/91/80 82/99/88
f 87/96/85 88/67/62 82/99/88 83/97/86
f 70/93/82 69/82/71 76/85/74 75/94/83
f 80/98/87 77/92/81 70/93/82 71/86/75
f 42/73/68 41/71/66 78/65/60 79/64/59
f 41/71/66 32/70/65 46/80/69 78/65/60
f 29/72/67 44/53/48 48/90/79 45/89/78
f 30/68/63 29/72/67 45/89/78 77/92/81
f 43/52/47 42/73/68 79/64/59 47/95/84
f 44/53/48 43/52/47 47/95/84 48/90/79
f 32/70/65 31/69/64 80/98/87 46/80/69
f 31/69/64 30/68/63 77/92/81 80/98/87
f 85/100/89 41/71/66 42/73/68
f 85/100/89 43/52/47 44/53/48
f 85/100/89 29/72/67 30/68/63
f 85/100/89 32/70/65 41/71/66
f 85/100/89 31/69/64 32/70/65
f 85/100/89 44/53/48 29/72/67
f 85/100/89 30/68/63 31/69/64
f 85/100/89 42/73/68 43/52/47
f 102/101/90 98/102/91 94/103/92 101/104/93
f 100/105/94 103/106/95 104/107/96 105/108/97
f 54/40/39 35/39/38 103/106/95 100/105/94
f 93/109/98 106/110/99 68/36/36 53/37/37
f 36/34/34 57/35/35 107/111/100 96/112/101
f 53/37/37 54/40/39 100/105/94 93/109/98
f 106/110/99 107/111/100 57/35/35 68/36/36
f 98/102/91 91/113/102 99/114/103 94/103/92
f 102/101/90 101/104/93 107/111/100 106/110/99
f 105/108/97 102/101/90 106/110/99 93/109/98 100/105/94
f 103/106/95 96/112/101 107/111/100 101/104/93 104/107/96
f 97/115/104 105/108/97 104/107/96 90/116/105
f 104/107/96 101/104/93 94/103/92 90/116/105
f 94/103/92 99/114/103 95/117/106 90/116/105
f 97/115/104 92/118/107 91/113/102 98/102/91
f 92/118/107 97/115/104 90/116/105 95/117/106
f 91/113/102 92/118/107 95/117/106 99/114/103
f 97/115/104 98/102/91 102/101/90 105/108/97
f 96/112/101 103/106/95 35/39/38 36/34/34
