# Blender v2.78 (sub 0) OBJ File: 'Tileset_combined_binary.blend'
# www.blender.org
mtllib wall_corner.mtl
o Claimed_00001110
v -3.329275 3.335564 2.889862
v -4.899371 3.335564 1.327486
v -4.899371 2.829833 1.327486
v -3.329275 2.829833 2.889862
v -5.425351 3.335564 3.423563
v -3.329275 3.335564 3.423563
v -5.425351 3.335564 1.327486
v -4.899372 3.335564 2.889862
v -4.899372 2.829833 2.889862
v -5.425351 2.829833 1.327486
v -3.329275 2.829833 3.423563
v -5.425351 2.696923 3.423563
v -5.425351 2.696923 1.060638
v -3.062427 2.696923 3.423562
v -5.562436 2.696922 1.060637
v -5.562436 2.696922 3.560648
v -3.062427 2.696922 3.560648
v -5.562436 0.000000 3.560648
v -5.562436 2.312510 1.060637
v -5.562436 2.312510 3.560648
v -3.062427 2.312510 3.560648
v -3.062427 -0.000000 3.560648
v -5.562436 -0.000000 1.060638
v -5.562436 0.219688 1.060638
v -3.062427 0.219688 3.560648
v -5.562436 0.219689 3.560648
v -5.425351 0.219688 1.060638
v -3.062427 0.219688 3.423562
v -5.425351 0.219688 3.423563
v -5.425351 2.312510 1.060638
v -3.062427 2.312510 3.423562
v -5.425351 2.312510 3.423563
v -5.425351 2.829833 1.060638
v -3.062427 2.829832 3.423562
v -5.425351 2.829833 3.423563
v -3.062427 2.829832 1.060637
v -5.425351 2.696923 3.423563
v -5.425351 2.696923 3.423563
v -5.425351 2.829833 3.423563
v -3.329275 3.335564 2.889862
v -3.329275 3.335564 2.889862
v -3.329275 2.829833 2.889862
v -3.329275 2.829833 2.889862
v -4.899371 3.335564 1.327486
v -4.899371 3.335564 1.327486
v -4.899371 2.829833 1.327486
v -4.899371 2.829833 1.327486
v -3.329275 3.335564 3.423563
v -3.329275 3.335564 3.423563
v -4.899372 3.335564 2.889862
v -4.899372 3.335564 2.889862
v -5.425351 3.335564 1.327486
v -5.425351 3.335564 1.327486
v -4.899372 2.829833 2.889862
v -4.899372 2.829833 2.889862
v -5.425351 2.829833 1.327486
v -5.425351 2.829833 1.327486
v -3.329275 2.829833 3.423563
v -3.329275 2.829833 3.423563
v -5.562436 2.696922 3.560648
v -5.562436 2.696922 3.560648
v -5.562436 2.312510 3.560648
v -5.562436 2.312510 3.560648
v -5.425351 3.335564 3.423563
v -5.425351 3.335564 3.423563
v -5.425351 2.829833 1.060638
v -3.062427 2.829832 3.423562
v -3.062427 2.696923 3.423562
v -5.425351 2.696923 1.060638
v -5.562436 2.696922 1.060637
v -3.062427 2.696922 3.560648
v -5.562436 0.000000 3.560648
v -5.562436 0.219689 3.560648
v -5.562436 0.219689 3.560648
v -5.562436 2.312510 1.060637
v -3.062427 2.312510 3.560648
v -5.562436 0.219688 1.060638
v -3.062427 0.219688 3.560648
v -3.062427 0.219688 3.423562
v -5.425351 0.219688 3.423563
v -5.425351 0.219688 3.423563
v -5.425351 0.219688 1.060638
v -5.425351 2.312510 3.423563
v -5.425351 2.312510 3.423563
v -3.062427 2.312510 3.423562
v -5.425351 2.312510 1.060638
vt -0.7949 -0.1992
vt -0.8926 -0.1992
vt -0.8926 -0.2402
vt 0.0527 -0.2402
vt 0.0527 -0.1992
vt 1.0000 -0.2383
vt 1.0000 -0.1992
vt 0.9004 -0.1992
vt 0.0527 -0.1992
vt 0.0527 -0.2383
vt 1.0000 1.0000
vt 0.8897 0.2714
vt 0.8897 0.0579
vt 1.0000 0.0579
vt 0.0548 1.0000
vt 0.0548 0.8958
vt 0.2683 0.8958
vt 0.2683 0.2714
vt 0.0548 0.8958
vt 0.0548 0.0579
vt 0.2683 0.2714
vt 0.2683 0.8958
vt 0.8897 0.0579
vt 0.8897 0.2714
vt 0.2550 0.2636
vt 0.8977 0.2636
vt 0.8977 0.4555
vt 0.2550 0.4555
vt 0.9023 0.2578
vt 0.9023 0.0586
vt 1.0684 0.0586
vt 1.0684 0.2578
vt 0.2559 1.1523
vt 0.0566 1.1602
vt 0.0508 0.9023
vt 0.2559 0.9023
vt 0.4473 0.2559
vt 0.4473 0.9043
vt 0.2559 0.9043
vt 0.2559 0.2559
vt 0.9004 -0.0469
vt 0.0527 -0.0469
vt 0.0527 -0.0469
vt -0.7949 -0.0469
vt 0.0548 0.0579
vt 0.0548 1.0000
vt 0.0000 1.0000
vt 0.0000 0.0000
vt 1.0000 0.0579
vt 1.0000 0.0000
vt 0.0000 0.8085
vt 0.0000 0.6933
vt 1.0000 0.6933
vt 1.0000 0.8085
vt 1.0000 0.6933
vt 1.0000 0.8085
vt 0.0000 0.8085
vt 0.0000 0.6933
vt 0.0000 0.0659
vt 0.0000 0.0000
vt 1.0000 0.0000
vt 1.0000 0.0659
vt 1.0000 0.0000
vt 1.0000 0.0659
vt 0.0000 0.0659
vt 0.0000 0.0000
vt 0.0548 1.0000
vt 0.0548 0.0548
vt 0.0095 0.0000
vt 0.0000 1.0000
vt 1.0000 0.0548
vt 1.0000 0.0000
vt 0.0548 0.0548
vt 0.0548 1.0000
vt 0.0000 1.0000
vt 0.0000 0.0000
vt 1.0000 0.0548
vt 1.0000 0.0000
vt 1.0000 0.0659
vt 1.0000 0.6933
vt -0.0007 0.6932
vt -0.0007 0.0657
vt 0.0000 0.6933
vt 0.0000 0.0659
vt 0.9303 0.0657
vt 0.9303 0.6932
vn -1.0000 0.0000 0.0000
vn 0.0000 0.0000 1.0000
vn 0.0000 1.0000 -0.0000
vn -0.0000 0.0000 -1.0000
vn 1.0000 0.0000 0.0000
vn 0.0000 -1.0000 -0.0000
usemtl Claimedwall
s off
f 56/1/1 66/2/1 69/3/1
f 56/1/1 69/3/1 37/4/1 39/5/1
f 68/6/2 67/7/2 58/8/2
f 68/6/2 58/8/2 35/9/2 12/10/2
f 36/11/3 43/12/3 59/13/3 34/14/3
f 36/11/3 33/15/3 57/16/3 47/17/3
f 47/17/3 54/18/3 43/12/3 36/11/3
f 52/19/3 64/20/3 50/21/3 45/22/3
f 48/23/3 41/24/3 50/21/3 64/20/3
f 51/25/4 40/26/4 42/27/4 55/28/4
f 1/29/5 49/30/5 11/31/5 4/32/5
f 46/33/4 10/34/4 53/35/4 44/36/4
f 9/37/5 3/38/5 2/39/5 8/40/5
f 35/9/2 58/8/2 6/41/2 65/42/2
f 56/1/1 39/5/1 5/43/1 7/44/1
f 38/45/3 13/46/3 15/47/3 61/48/3
f 14/49/3 38/45/3 61/48/3 17/50/3
f 70/51/1 75/52/1 62/53/1 60/54/1
f 76/55/2 71/56/2 16/57/2 20/58/2
f 77/59/1 23/60/1 72/61/1 73/62/1
f 22/63/2 78/64/2 74/65/2 18/66/2
f 86/67/6 83/68/6 63/69/6 19/70/6
f 83/68/6 85/71/6 21/72/6 63/69/6
f 80/73/3 82/74/3 24/75/3 26/76/3
f 79/77/3 80/73/3 26/76/3 25/78/3
f 28/79/2 31/80/2 84/81/2 81/82/2
f 30/83/1 27/84/1 29/85/1 32/86/1
